# AST/ASF file generated using VICON BodyLanguage
# -----------------------------------------------
:version 1.10
:name VICON
:units
  mass 1.0
  length 0.45
  angle deg
:documentation
   .ast/.asf automatically generated from VICON data using
   VICON BodyBuilder and BodyLanguage model FoxedUp or BRILLIANT.MOD
:root
   order TX TY TZ RX RY RZ
   axis XYZ
   position 0 0 0  
   orientation 0 0 0 
:bonedata
  begin
     id 1 
     name lhipjoint
     direction 0.671379 -0.66392 0.329334 
     length 2.38647 
     axis 0 0 0  XYZ
  end
  begin
     id 2 
     name lfemur
     direction 0.34202 -0.939693 0  
     length 6.48179  
     axis 0 0 20  XYZ
    dof rx ry rz
    limits (-160.0 20.0)
           (-70.0 70.0)
           (-60.0 70.0)
  end
  begin
     id 3 
     name ltibia
     direction 0.34202 -0.939693 0   
     length 6.86524   
     axis 0 0 20   XYZ
    dof rx
    limits (-10.0 170.0)
  end
  begin
     id 4 
     name lfoot
     direction 0.204886 -0.562919 0.800715   
     length 1.73031   
     axis -90 7.62852e-016 20   XYZ
    dof rx rz
    limits (-45.0 90.0)
           (-70.0 20.0)
  end
  begin
     id 5 
     name ltoes
     direction 1.53548e-011 -4.21841e-011 1   
     length 0.828161   
     axis -90 7.62852e-016 20   XYZ
    dof rx
    limits (-90.0 20.0)
  end
  begin
     id 6 
     name rhipjoint
     direction -0.662732 -0.670855 0.332775   
     length 2.3618  
     axis 0 0 0  XYZ 
  end
  begin
     id 7 
     name rfemur
     direction -0.34202 -0.939693 0   
     length 6.3025   
     axis 0 0 -20   XYZ
    dof rx ry rz
    limits (-160.0 20.0)
           (-70.0 70.0)
           (-70.0 60.0)
  end
  begin
     id 8 
     name rtibia
     direction -0.34202 -0.939693 0   
     length 6.8732   
     axis 0 0 -20   XYZ
    dof rx
    limits (-10.0 170.0)
 end
 begin
     id 9 
     name rfoot
     direction -0.173856 -0.477665 0.861168   
     length 1.54784  
     axis -90 -7.62852e-016 -20   XYZ
    dof rx rz
    limits (-45.0 90.0)
           (-20.0 70.0)
  end
  begin
     id 10 
     name rtoes
     direction -1.53562e-011 -4.21802e-011 1   
     length 0.759618   
     axis -90 -7.62852e-016 -20   XYZ
    dof rx
    limits (-90.0 20.0)
  end
  begin
     id 11 
     name lowerback
     direction -0.0278357 0.999497 -0.0151789   
     length 1.97203   
     axis 0 0 0   XYZ
    dof rx ry rz
    limits (-20.0 45.0)
           (-30.0 30.0)
           (-30.0 30.0)
  end
  begin
     id 12 
     name upperback
     direction -0.00360622 0.997542 0.0699804   
     length 1.94709   
     axis 0 0 0   XYZ
    dof rx ry rz
    limits (-20.0 45.0)
           (-30.0 30.0)
           (-30.0 30.0)
  end
  begin
     id 13 
     name thorax
     direction 0.00907706 0.997048 0.0762461   
     length 1.95722   
     axis 0 0 0   XYZ
    dof rx ry rz
    limits (-20.0 45.0)
           (-30.0 30.0)
           (-30.0 30.0)
  end
  begin
     id 14 
     name lowerneck
     direction -0.0481835 0.99872 -0.0153927   
     length 1.63078   
     axis 0 0 0   XYZ
    dof rx ry rz
    limits (-20.0 45.0)
           (-30.0 30.0)
           (-30.0 30.0)
  end
  begin
     id 15 
     name upperneck
     direction 0.0859716 0.979226 -0.183644   
     length 1.62591   
     axis 0 0 0   XYZ
    dof rx ry rz
    limits (-20.0 45.0)
           (-30.0 30.0)
           (-30.0 30.0)
  end
  begin
     id 16
     name head
     direction 0.0324821 0.997629 -0.0606773  
     length 1.64811  
     axis 0 0 0   XYZ
    dof rx ry rz
    limits (-20.0 45.0)
           (-30.0 30.0)
           (-30.0 30.0)
  end
  begin
     id 17 
     name lclavicle
     direction 0.939609 0.311019 0.142835  
     length 3.70647  
     axis 0 0 0   XYZ
    dof ry rz
    limits (-20.0 10.0)
           (0.0 20.0)
  end
  begin
     id 18 
     name lhumerus
     direction 1 -4.48963e-011 -1.59838e-027   
     length 4.59207   
     axis 180 -30 -90   XYZ
    dof rx ry rz
    limits (-60.0 90.0)
           (-90.0 90.0)
           (-90.0 90.0)
  end
  begin
     id 19
     name lradius
     direction 1 -4.48957e-011 -1.3483e-026   
     length 2.98109   
     axis 180 -30 -90   XYZ
    dof rx
    limits (-10.0 170.0)
  end
  begin
     id 20
     name lwrist
     direction 1 -4.48954e-011 -3.11579e-026   
     length 1.49055   
     axis 2.00652e-014 90 90   XYZ
    dof ry
    limits (-180.0 0.0)
 end
  begin
     id 21 
     name lhand
     direction 1 -4.4911e-011 -6.23158e-026   
     length 0.480203   
     axis 3.97628e-014 90 90   XYZ
    dof rx rz
    limits (-90.0 90.0)
           (-45.0 45.0)
  end
  begin
     id 22 
     name lfingers
     direction 1 -4.48893e-011 -1.24632e-025   
     length 0.387152   
     axis 7.95256e-014 90 90   XYZ
    dof rx
    limits (0.0 90.0)
  end
  begin
     id 23
     name lthumb
     direction 0.707107 -6.35013e-011 0.707107   
     length 0.555875   
     axis -90 45 2.85299e-015   XYZ
    dof rx rz
    limits (-45.0 45.0)
           (-45.0 45.0)
  end
  begin
     id 24 
     name rclavicle
     direction -0.950396 0.30392 0.0661859   
     length 3.70894  
     axis 0 0 0   XYZ 
    dof ry rz
    limits (-10.0 20.0)
           (-20.0 0.0)
  end
  begin
     id 25 
     name rhumerus
     direction -1 -4.48957e-011 -2.96677e-027  
     length 4.76508   
     axis 180 30 90   XYZ
    dof rx ry rz
    limits (-90.0 60.0)
           (-90.0 90.0)
           (-90.0 90.0)
  end
  begin
     id 26 
     name rradius
     direction -1 -4.48974e-011 -1.44501e-026   
     length 2.78902   
     axis 180 30 90   XYZ
    dof rx
    limits (-10.0 170.0)
  end
  begin
     id 27 
     name rwrist
     direction -1 -4.48978e-011 -3.11579e-026   
     length 1.39451   
     axis 2.00652e-014 -90 -90   XYZ
    dof ry
    limits (-180.0 0.0)
  end
  begin
     id 28
     name rhand
     direction -1 -4.48956e-011 -6.23158e-026   
     length 0.721303   
     axis 3.97628e-014 -90 -90   XYZ
    dof rx rz
    limits (-90.0 90.0)
           (-45.0 45.0)
  end
  begin
     id 29
     name rfingers
     direction -1 -4.4899e-011 -1.24632e-025   
     length 0.581533   
     axis 7.95256e-014 -90 -90   XYZ
    dof rx
    limits (0.0 90.0)
  end
  begin
     id 30
     name rthumb
     direction -0.707107 -6.34911e-011 0.707107   
     length 0.834968   
     axis -90 -45 -2.85299e-015   XYZ
    dof rx rz
    limits (-45.0 45.0)
           (-45.0 45.0)
  end
:hierarchy
  begin
    root lhipjoint rhipjoint lowerback
    lhipjoint lfemur
    lfemur ltibia
    ltibia lfoot
    lfoot ltoes
    rhipjoint rfemur
    rfemur rtibia
    rtibia rfoot
    rfoot rtoes
    lowerback upperback
    upperback thorax
    thorax lowerneck lclavicle rclavicle
    lowerneck upperneck
    upperneck head
    lclavicle lhumerus
    lhumerus lradius
    lradius lwrist
    lwrist lhand lthumb
    lhand lfingers
    rclavicle rhumerus
    rhumerus rradius
    rradius rwrist
    rwrist rhand rthumb
    rhand rfingers
  end

#!OML:ASF I:\salsa\salsa 7_09\Patient 1\Session 1\dancerfemale.ASF
:FULLY-SPECIFIED
:DEGREES
150
root 24.6786 15.8117 0.602538 -165.066 -82.8428 169.651
lowerback -2.40579 2.9383 -5.53031
upperback -4.93492 3.83121 0.681376
thorax -4.187 2.09588 3.73803
lowerneck -3.16613 -3.13688 -9.90897
upperneck 10.7682 -4.57118 8.49194
head 4.14015 -2.30152 4.02089
rclavicle -6.11263e-015 -8.64713e-015
rhumerus -31.4886 12.2947 -105.784
rradius 72.7118
rwrist -15.1923
rhand 1.43058 57.0752
rfingers 7.12502
rthumb 26.9599 28.9786
lclavicle -6.11263e-015 -8.64713e-015
lhumerus -58.2869 16.7315 70.3276
lradius 75.3579
lwrist -16.2209
lhand -18.0458 55.9092
lfingers 7.12502
lthumb 8.2261 85.7291
rfemur -17.8179 1.37387 16.4776
rtibia 33.7104
rfoot -24.3391 -8.09872
rtoes -12.6385
lfemur -15.1932 0.544252 -28.1021
ltibia 35.0712
lfoot -29.2539 6.22413
ltoes -17.8863
151
root 24.6753 15.8143 0.594267 -166.191 -82.4562 170.715
lowerback -2.35344 3.12515 -5.67187
upperback -4.86206 4.08662 0.807169
thorax -4.18995 2.23178 3.93945
lowerneck -3.32337 -3.20144 -10.0344
upperneck 10.7345 -4.6326 8.51826
head 4.16608 -2.33008 4.04407
rclavicle -3.43276e-014 -2.18663e-015
rhumerus -30.6776 13.499 -105.988
rradius 72.6278
rwrist -14.6358
rhand 1.10048 58.0822
rfingers 7.12502
rthumb 26.644 29.9372
lclavicle -3.43276e-014 -2.18663e-015
lhumerus -58.6018 16.5694 69.5592
lradius 76.921
lwrist -16.1824
lhand -17.9789 56.1168
lfingers 7.12502
lthumb 8.29067 85.9341
rfemur -17.792 1.43001 16.5821
rtibia 33.6665
rfoot -24.2519 -7.82997
rtoes -12.7786
lfemur -15.0775 0.427981 -28.052
ltibia 35.0207
lfoot -29.291 6.75974
ltoes -17.6838
152
root 24.668 15.81 0.58684 -165.119 -82.1091 169.487
lowerback -2.31683 3.30253 -6.04379
upperback -4.72088 4.32981 0.808392
thorax -4.12269 2.36446 4.14273
lowerneck -3.42805 -3.31328 -10.1193
upperneck 10.6703 -4.76701 8.56511
head 4.18054 -2.39332 4.06341
rclavicle -1.43125e-014 -3.8763e-015
rhumerus -30.0189 14.6316 -106.116
rradius 72.3591
rwrist -14.1183
rhand 0.690992 58.7434
rfingers 7.12502
rthumb 26.2521 30.5394
lclavicle -1.43125e-014 -3.8763e-015
lhumerus -58.5917 16.4303 68.9488
lradius 78.4513
lwrist -15.9296
lhand -18.2574 56.3947
lfingers 7.12502
lthumb 8.02195 86.2225
rfemur -17.6773 1.51057 16.3502
rtibia 33.6971
rfoot -24.2581 -7.63896
rtoes -12.8358
lfemur -14.9021 0.391794 -28.3617
ltibia 34.9913
lfoot -29.2154 7.41701
ltoes -18.7446
153
root 24.6608 15.806 0.581414 -164.728 -81.7736 168.923
lowerback -2.25455 3.55957 -6.33482
upperback -4.57183 4.67899 0.818284
thorax -4.07151 2.54708 4.30455
lowerneck -3.47064 -3.52197 -10.1239
upperneck 10.5501 -5.02912 8.50592
head 4.17608 -2.52211 4.02936
rclavicle -4.03284e-014 -9.0447e-015
rhumerus -29.5428 15.5825 -106.089
rradius 71.8991
rwrist -13.7271
rhand 0.561545 59.1442
rfingers 7.12502
rthumb 26.1281 30.9218
lclavicle -4.03284e-014 -9.0447e-015
lhumerus -58.2696 16.2094 68.6449
lradius 79.9221
lwrist -15.5999
lhand -18.6032 56.2166
lfingers 7.12502
lthumb 7.68812 86.0569
rfemur -17.5752 1.80722 16.2
rtibia 33.8081
rfoot -24.2908 -7.60446
rtoes -12.8934
lfemur -14.7491 0.417914 -28.595
ltibia 35.003
lfoot -29.0977 8.08145
ltoes -19.2559
154
root 24.6571 15.8073 0.578842 -164.592 -81.5349 168.625
lowerback -2.10902 3.85069 -6.54555
upperback -4.47918 5.06545 0.832686
thorax -4.12766 2.74908 4.4155
lowerneck -3.34367 -3.76282 -10.1654
upperneck 10.3548 -5.34543 8.45298
head 4.12662 -2.68261 4.00284
rclavicle 1.14425e-014 -8.94531e-016
rhumerus -29.2564 16.2388 -105.948
rradius 71.1331
rwrist -13.3883
rhand 0.515275 59.4651
rfingers 7.12502
rthumb 26.0838 31.2362
lclavicle 1.14425e-014 -8.94531e-016
lhumerus -57.8131 15.8282 68.6393
lradius 81.4382
lwrist -15.2741
lhand -18.7898 56.0235
lfingers 7.12502
lthumb 7.50807 85.8703
rfemur -17.5314 2.12344 16.1103
rtibia 34.0165
rfoot -24.3675 -7.68347
rtoes -12.8877
lfemur -14.6047 0.270632 -28.7183
ltibia 35.0485
lfoot -29.1183 8.40261
ltoes -17.6351
155
root 24.6559 15.8025 0.577245 -163.539 -81.4257 167.36
lowerback -1.91031 4.08532 -6.809
upperback -4.38932 5.37127 0.823004
thorax -4.21202 2.91292 4.52724
lowerneck -3.09252 -3.9389 -10.4034
upperneck 10.1263 -5.58962 8.56742
head 4.04894 -2.81067 4.06796
rclavicle 3.64149e-014 9.0447e-015
rhumerus -29.1766 16.7246 -105.757
rradius 70.1233
rwrist -13.0479
rhand 0.6096 59.6223
rfingers 7.12502
rthumb 26.1741 31.4067
lclavicle 3.64149e-014 9.0447e-015
lhumerus -57.3569 15.4148 68.8165
lradius 83.0798
lwrist -15.1438
lhand -18.7888 55.8811
lfingers 7.12502
lthumb 7.50902 85.7278
rfemur -17.4682 2.27139 15.8959
rtibia 34.2961
rfoot -24.4961 -7.77974
rtoes -12.8575
lfemur -14.4388 0.0436968 -28.9654
ltibia 35.1642
lfoot -29.1762 8.64088
ltoes -16.5913
156
root 24.6573 15.7865 0.574578 -162.432 -81.4381 165.98
lowerback -1.69979 4.26388 -7.02112
upperback -4.2301 5.60524 0.823662
thorax -4.21775 3.0357 4.62489
lowerneck -2.90285 -4.09066 -10.7234
upperneck 9.92694 -5.79647 8.72884
head 3.9913 -2.91978 4.16257
rclavicle -2.44381e-014 -5.36719e-015
rhumerus -29.2021 17.1251 -105.551
rradius 68.7894
rwrist -12.7169
rhand 1.08103 59.6918
rfingers 7.12502
rthumb 26.6254 31.544
lclavicle -2.44381e-014 -5.36719e-015
lhumerus -56.7553 15.1485 69.1438
lradius 84.7586
lwrist -15.2088
lhand -18.518 55.3757
lfingers 7.12502
lthumb 7.77034 85.2129
rfemur -17.36 2.44063 15.7022
rtibia 34.6359
rfoot -24.6745 -7.96053
rtoes -12.7077
lfemur -14.2515 -0.186831 -29.2178
ltibia 35.372
lfoot -29.2451 8.93451
ltoes -16.4512
157
root 24.6665 15.7679 0.57118 -162.18 -81.6308 165.519
lowerback -1.47882 4.43052 -7.04287
upperback -4.04497 5.8263 0.865868
thorax -4.18467 3.14444 4.6605
lowerneck -2.88808 -4.32172 -11.1138
upperneck 9.84702 -6.09918 8.91883
head 4.0131 -3.07366 4.26836
rclavicle 3.72597e-014 9.54166e-015
rhumerus -29.2063 17.3259 -105.267
rradius 67.0536
rwrist -12.3986
rhand 1.42399 59.7971
rfingers 7.12502
rthumb 26.9536 31.6996
lclavicle 3.72597e-014 9.54166e-015
lhumerus -55.8132 15.0198 69.7912
lradius 86.3465
lwrist -15.1286
lhand -18.6265 54.7352
lfingers 7.12502
lthumb 7.66571 84.5763
rfemur -17.3708 2.68857 15.734
rtibia 35.0582
rfoot -24.8785 -8.35203
rtoes -12.4391
lfemur -14.1901 -0.466827 -29.2485
ltibia 35.6353
lfoot -29.2939 9.08501
ltoes -16.0062
158
root 24.6844 15.7531 0.568797 -162.873 -82.1031 166.109
lowerback -1.16097 4.54262 -6.83624
upperback -3.98338 5.9656 0.978409
thorax -4.30749 3.21298 4.63217
lowerneck -2.81658 -4.56547 -11.5043
upperneck 9.88124 -6.42401 9.00835
head 4.06112 -3.24562 4.34175
rclavicle -2.73453e-014 1.09332e-014
rhumerus -29.3747 17.341 -104.894
rradius 64.9648
rwrist -12.0648
rhand 1.36045 59.8719
rfingers 7.12502
rthumb 26.8928 31.7649
lclavicle -2.73453e-014 1.09332e-014
lhumerus -54.7866 14.9482 70.7624
lradius 87.8867
lwrist -14.8302
lhand -19.2328 54.1698
lfingers 7.12502
lthumb 7.08042 84.0314
rfemur -17.5261 2.77312 16.0354
rtibia 35.5291
rfoot -24.9949 -8.91688
rtoes -12.531
lfemur -14.3406 -0.788931 -29.0179
ltibia 35.9575
lfoot -29.2099 9.10144
ltoes -15.8382
159
root 24.6983 15.7377 0.569755 -162.419 -82.6433 165.445
lowerback -0.825855 4.65142 -6.73025
upperback -3.90995 6.09866 1.0562
thorax -4.43429 3.28069 4.62151
lowerneck -2.49104 -4.79083 -11.7261
upperneck 9.7642 -6.73483 8.91131
head 4.0095 -3.41774 4.33566
rclavicle 3.77194e-014 6.16232e-015
rhumerus -29.766 17.0479 -104.387
rradius 62.7411
rwrist -11.4968
rhand 1.3415 60.0791
rfingers 7.12502
rthumb 26.8747 31.9694
lclavicle 3.77194e-014 6.16232e-015
lhumerus -53.6662 14.7874 72.0539
lradius 89.3637
lwrist -14.5781
lhand -19.8307 53.3929
lfingers 7.12502
lthumb 6.50328 83.2731
rfemur -17.545 2.61407 16.1682
rtibia 36.0307
rfoot -25.0511 -9.40312
rtoes -13.0358
lfemur -14.3851 -1.08155 -28.9679
ltibia 36.3104
lfoot -29.1229 9.06663
ltoes -16.0467
160
root 24.7035 15.7204 0.574263 -160.415 -83.0726 163.095
lowerback -0.503602 4.84018 -6.72553
upperback -3.72624 6.33916 1.00923
thorax -4.44905 3.39685 4.53585
lowerneck -2.19045 -5.07441 -11.8418
upperneck 9.55527 -7.12496 8.83487
head 3.9401 -3.62208 4.3142
rclavicle 5.9536e-014 8.74653e-015
rhumerus -30.2029 16.2647 -103.731
rradius 60.4997
rwrist -10.647
rhand 1.86569 60.3273
rfingers 7.12502
rthumb 27.3761 32.2958
lclavicle 5.9536e-014 8.74653e-015
lhumerus -52.2528 14.3921 73.6187
lradius 90.7249
lwrist -14.4936
lhand -20.563 52.2815
lfingers 7.12502
lthumb 5.79627 82.1822
rfemur -17.4177 2.41791 16.0427
rtibia 36.5898
rfoot -25.0996 -9.78227
rtoes -13.463
lfemur -14.2312 -1.24375 -29.1701
ltibia 36.6269
lfoot -29.1133 8.93021
ltoes -16.1195
161
root 24.707 15.7038 0.579351 -157.382 -83.5515 159.698
lowerback 0.145409 4.96728 -6.47393
upperback -3.70267 6.46398 0.725202
thorax -4.7423 3.45034 4.03648
lowerneck -2.02683 -5.29199 -11.9595
upperneck 9.60734 -7.4621 9.05721
head 3.97654 -3.78931 4.38593
rclavicle 2.76559e-014 7.55382e-015
rhumerus -31.0142 15.062 -103.407
rradius 58.3046
rwrist -9.31465
rhand 2.40506 60.1184
rfingers 7.12502
rthumb 27.8919 32.1694
lclavicle 2.76559e-014 7.55382e-015
lhumerus -50.9321 13.8286 74.9833
lradius 92.1296
lwrist -14.3394
lhand -21.4971 51.4822
lfingers 7.12502
lthumb 4.89436 81.4056
rfemur -17.2869 2.29738 15.8439
rtibia 37.2259
rfoot -25.1625 -10.2439
rtoes -13.3411
lfemur -14.0078 -1.29054 -29.4118
ltibia 36.8545
lfoot -29.0769 8.55485
ltoes -16.1846
162
root 24.7125 15.6878 0.585177 -152.664 -84.144 154.641
lowerback 0.408167 5.05855 -6.55993
upperback -3.41956 6.57957 0.682302
thorax -4.61203 3.5018 4.02192
lowerneck -2.02142 -5.59467 -12.4303
upperneck 9.55594 -7.8685 9.30592
head 4.03305 -3.99444 4.51376
rclavicle -2.45375e-014 3.77691e-015
rhumerus -31.7203 13.7017 -102.452
rradius 56.2741
rwrist -7.26654
rhand 2.49516 59.6651
rfingers 7.12502
rthumb 27.978 31.7302
lclavicle -2.45375e-014 3.77691e-015
lhumerus -49.201 13.4599 77.1614
lradius 93.5419
lwrist -14.1138
lhand -22.4364 51.0006
lfingers 7.12502
lthumb 3.98738 80.943
rfemur -17.1861 2.22924 15.591
rtibia 37.9084
rfoot -25.3345 -10.8878
rtoes -13.0752
lfemur -13.7733 -1.34625 -29.6843
ltibia 37.0045
lfoot -28.9985 7.9898
ltoes -16.2706
163
root 24.7194 15.6747 0.59179 -146.27 -84.8356 147.938
lowerback 0.997028 5.0973 -6.35184
upperback -3.33164 6.59474 0.460714
thorax -4.80122 3.49953 3.62739
lowerneck -1.93547 -5.93028 -12.8243
upperneck 9.59182 -8.35219 9.63372
head 4.11394 -4.23622 4.64978
rclavicle -1.19805e-013 -1.17283e-014
rhumerus -32.8311 11.7422 -101.675
rradius 54.5311
rwrist -4.6879
rhand 2.45073 59.4233
rfingers 7.12502
rthumb 27.9356 31.4815
lclavicle -1.19805e-013 -1.17283e-014
lhumerus -47.6352 12.7866 79.2586
lradius 94.9968
lwrist -13.8404
lhand -23.3905 50.4576
lfingers 7.12502
lthumb 3.06598 80.4153
rfemur -17.1091 2.08023 15.4103
rtibia 38.5707
rfoot -25.4481 -11.8197
rtoes -13.8799
lfemur -13.5661 -1.45716 -29.9082
ltibia 37.1334
lfoot -28.906 7.28665
ltoes -16.2077
164
root 24.7244 15.6646 0.59914 -137.288 -85.6188 138.666
lowerback 1.21901 5.10465 -6.35217
upperback -3.02328 6.60601 0.492893
thorax -4.60724 3.49604 3.65674
lowerneck -1.70865 -6.35111 -13.2853
upperneck 9.2285 -8.91343 9.77226
head 4.05951 -4.52332 4.73672
rclavicle 1.24365e-014 9.93923e-016
rhumerus -33.9697 9.89028 -100.337
rradius 53.3424
rwrist -2.76637
rhand 2.40414 59.1357
rfingers 7.12502
rthumb 27.891 31.1866
lclavicle 1.24365e-014 9.93923e-016
lhumerus -45.6862 12.1615 82.0364
lradius 96.2663
lwrist -13.7487
lhand -24.3982 49.7684
lfingers 7.12502
lthumb 2.09277 79.7379
rfemur -16.9835 1.8012 15.3428
rtibia 39.1614
rfoot -25.5303 -13.0367
rtoes -15.7184
lfemur -13.3743 -1.53615 -30.0431
ltibia 37.2744
lfoot -28.7408 6.42963
ltoes -16.4131
